# xmcd CD database file
#
# Track frame offsets:
#	150
#	21505
#	34680
#	49205
#	64542
#	83527
#	98097
#	116457
#	134067
#	145527
#	168945
#	188185
#	206005
#
# Disc length: 2952 seconds
#
# Revision: 0
# Processed by: cddbd v1.5.2PL0 Copyright (c) Steve Scherf et al.
# Submitted via: CDex 1.70beta2
#
DISCID=ae0b860d
DTITLE=David Budway - Brief Encounter: To Last a Lifetime
DYEAR=1995
DGENRE=Jazz
TTITLE0=Where Do You Start
TTITLE1=Valley of the Dolls
TTITLE2=Aspen
TTITLE3=Solitude
TTITLE4=Two for the Road
TTITLE5=Italian Rain
TTITLE6=Brief Encounter: To Last a Lifetime
TTITLE7=The Girl Across the Way
TTITLE8=Fancy Free
TTITLE9=Oblivion
TTITLE10=Crazy World
TTITLE11=Jean
TTITLE12=Clelissima
EXTD=YEAR: 1995
EXTT0=
EXTT1=
EXTT2=
EXTT3=
EXTT4=
EXTT5=
EXTT6=
EXTT7=
EXTT8=
EXTT9=
EXTT10=
EXTT11=
EXTT12=
PLAYORDER=
